<svg width="23" height="25" viewBox="0 0 23 25" fill="none" xmlns="http://www.w3.org/2000/svg">
<path d="M13.583 25C13.3577 25 13.1384 24.9269 12.958 24.7917L8.79138 21.6667C8.66201 21.5696 8.55701 21.4438 8.48469 21.2992C8.41237 21.1545 8.37472 20.995 8.37472 20.8333V14.9792L1.06638 6.75729C0.547341 6.17175 0.208444 5.44877 0.0904235 4.67524C-0.0275967 3.90172 0.0802821 3.11057 0.401094 2.39689C0.721905 1.6832 1.242 1.07735 1.89886 0.652152C2.55573 0.226951 3.32141 0.000494186 4.10388 0L18.8956 0C19.678 0.000917761 20.4435 0.227749 21.1 0.653236C21.7566 1.07872 22.2764 1.68476 22.5969 2.39853C22.9173 3.11229 23.0249 3.90341 22.9066 4.67682C22.7883 5.45023 22.4491 6.17302 21.9299 6.75833L14.6247 14.9792V23.9583C14.6247 24.2346 14.515 24.4996 14.3196 24.6949C14.1243 24.8903 13.8593 25 13.583 25ZM10.458 20.3125L12.5414 21.875V14.5833C12.5416 14.3283 12.6354 14.0822 12.8049 13.8917L20.3758 5.37396C20.6282 5.08863 20.7929 4.7365 20.8502 4.35985C20.9074 3.98319 20.8547 3.59802 20.6984 3.25058C20.5421 2.90314 20.2889 2.60818 19.9691 2.40113C19.6493 2.19408 19.2765 2.08373 18.8956 2.08333H4.10388C3.7231 2.08391 3.35057 2.19432 3.03097 2.40132C2.71137 2.60832 2.45826 2.90312 2.30201 3.25037C2.14577 3.59761 2.093 3.98256 2.15006 4.35904C2.20711 4.73552 2.37156 5.08756 2.62367 5.37292L10.1955 13.8917C10.3647 14.0823 10.4581 14.3284 10.458 14.5833V20.3125Z" fill="#818A9B"/>
</svg>
