<?xml version="1.0" encoding="UTF-8"?>
    <svg class="logo" xmlns="http://www.w3.org/2000/svg" width="3000" height="3000" viewBox="0 0 3000 3000">
        <style>
            .logo
            {
                --brand-color: hsl(214, 90%, 50%);
                --text-major-color: hsl(214, 3%, 12%);
            }
            .logo .brand { fill: var(--brand-color); }
            .logo .common { fill: var(--text-major-color); }
        </style>
        <path class="common" d="M2247.55 1919.07C2074.1 1919.07 1933.48 1778.65 1933.48 1605.45C1933.48 1432.35 2074.1 1291.93 2247.55 1291.93C2420.9 1291.93 2561.52 1432.35 2561.52 1605.45C2561.52 1778.65 2420.9 1919.07 2247.55 1919.07ZM2247.55 900C1857.34 900 1541 1215.89 1541 1605.45C1541 1995.11 1857.34 2311 2247.55 2311C2637.66 2311 2954 1995.11 2954 1605.45C2954 1215.89 2637.66 900 2247.55 900Z"></path>
        <path class="brand" d="M1066.52 974.879C971.881 927.887 865.38 901.428 752.549 901.428C362.34 901.428 46 1217.15 46 1606.71C46 1996.18 362.34 2312 752.549 2312C1135.74 2312 1447.92 2007.34 1459 1627.35V687H1066.52V974.879Z"></path>
    </svg>