<svg width="18" height="20" viewBox="0 0 18 20" fill="none" xmlns="http://www.w3.org/2000/svg">
<path d="M16.9399 7.70567C15.4573 7.61052 14.0876 7.09538 12.9483 6.27721L12.1567 5.70867V6.68333V13.6708C12.1567 16.8846 9.5414 19.4992 6.32833 19.4992C5.08672 19.4992 3.93559 19.1081 2.98904 18.4433L2.98901 18.4433C1.4842 17.3866 0.5 15.641 0.5 13.6708C0.5 10.457 3.11531 7.84167 6.32917 7.84167C6.44691 7.84167 6.56427 7.84607 6.68167 7.85412V8.2175V10.2994C6.56634 10.2867 6.44879 10.28 6.32917 10.28C4.4596 10.28 2.93917 11.8006 2.93917 13.6708C2.93917 14.975 3.67968 16.105 4.75631 16.6716L4.75641 16.6717C5.22619 16.9188 5.7616 17.0608 6.33 17.0608C8.15766 17.0608 9.64624 15.6078 9.71464 13.7981L9.715 13.7887L9.715 13.7793L9.71741 0.5H12.1802C12.1953 0.656586 12.2171 0.810675 12.2448 0.962197L12.245 0.963511C12.5132 2.41199 13.3723 3.65291 14.561 4.42796C15.2575 4.88225 16.0681 5.17805 16.9393 5.26059L16.9399 7.70567Z" stroke="#B1B5CC"/>
</svg>
